# xmcd
#
# Track frame offsets:
#	150
#	16739
#	35156
#	52776
#	68005
#	79561
#	94906
#	110760
#	128658
#	141642
#	155456
#	177551
#	191635
#	204777
#	218444
#	236284
#	253630
#	273908
#	287797
#	302886
#	314307
#	327666
#	346156
#
# Disc length: 4781 seconds
#
# Revision: 0
# Processed by: cddbd v1.5PL3 Copyright (c) Steve Scherf et al.
# Submitted via: dBpowerAMP V4.0
#
DISCID=4a12ab17
DTITLE=VARI - Best
DYEAR=1900
DGENRE=Country
TTITLE0=Mercury Blues
TTITLE1=Who's Cheatin Who
TTITLE2=Designated Drinker
TTITLE3=Alexis
TTITLE4=Borders Swng
TTITLE5=Ain't nothing 'bout you
TTITLE6=Every River
TTITLE7=Go West
TTITLE8=Good girls go to Heaven
TTITLE9=Little Miss Honky Tonk
TTITLE10=You're gonna miss me when I'm gone
TTITLE11=My kind of crazy
TTITLE12=Whiskey under the bridge
TTITLE13=She's the kind of trouble
TTITLE14=Nothing but the Tailights
TTITLE15=Freedom's finaly mine
TTITLE16=Ghost in the guitar
TTITLE17=Hank don't fail me now
TTITLE18=Just some love
TTITLE19=Someday you gotta dance
TTITLE20=Walkin' the country
TTITLE21=The cowboy in me
TTITLE22=Don't stop
EXTD=
EXTT0=
EXTT1=
EXTT2=
EXTT3=
EXTT4=
EXTT5=
EXTT6=
EXTT7=
EXTT8=
EXTT9=
EXTT10=
EXTT11=
EXTT12=
EXTT13=
EXTT14=
EXTT15=
EXTT16=
EXTT17=
EXTT18=
EXTT19=
EXTT20=
EXTT21=
EXTT22=
PLAYORDER=
